<?xml version="1.0" ?><!DOCTYPE svg  PUBLIC '-//W3C//DTD SVG 1.1//EN'  'http://www.w3.org/Graphics/SVG/1.1/DTD/svg11.dtd'><svg enable-background="new 0.167 -30.455 141.732 141.732" height="141.732px" id="Livello_1" version="1.1" viewBox="0.167 -30.455 141.732 141.732" width="141.732px" xml:space="preserve" xmlns="http://www.w3.org/2000/svg" xmlns:xlink="http://www.w3.org/1999/xlink"><g id="Livello_62"><path d="M41.23,33.861c-4.479-3.368-9.811-5.148-15.41-5.148C11.583,28.713,0,40.401,0,54.767C0,69.064,11.525,80.749,25.693,80.82   l0.752,0.003h80.319l0.26-0.006c5.111-0.117,9.269-4.465,9.269-9.688c0-5.346-4.254-9.692-9.482-9.692   c-0.184,0-0.379,0.008-0.621,0.021l-1.018,0.067l-0.342-0.962c-2.132-6.002-7.812-10.035-14.129-10.035   c-1.781,0-3.527,0.312-5.187,0.93l-1.531,0.569l-0.271-1.611c-1-6.002-4.092-11.497-8.705-15.472   c-4.659-4.018-10.608-6.229-16.746-6.229c-5.604,0-10.933,1.78-15.41,5.148L42.04,34.47L41.23,33.861z M142.068,26.177   C142.068,11.72,130.58,0,116.408,0c-5.744,0-11.046,1.929-15.322,5.18C96.811,1.927,91.51,0,85.766,0   C73.055,0,62.508,9.431,60.469,21.807c-1.665-0.626-3.467-0.972-5.346-0.972c-6.396,0-11.877,3.97-14.224,9.617   c0.241,0.159,0.481,0.319,0.724,0.487c4.776-3.343,10.362-5.104,16.223-5.104c6.782,0,13.355,2.444,18.508,6.885   c4.693,4.047,7.963,9.521,9.308,15.547c1.502-0.408,3.051-0.615,4.625-0.615c4.521,0,8.76,1.749,11.959,4.699h14.289V52.35   C130.646,52.28,142.068,40.59,142.068,26.177"/></g><g id="Livello_1_1_"/></svg>