<?xml version="1.0" encoding="utf-8"?>
<!DOCTYPE svg PUBLIC "-//W3C//DTD SVG 20010904//EN" "http://www.w3.org/TR/2001/REC-SVG-20010904/DTD/svg10.dtd">
<svg version="1.0" xmlns="http://www.w3.org/2000/svg" width="26pt" height="26pt" viewBox="0 0 26 26" style="" preserveAspectRatio="xMidYMid meet">
<g fill="#57a0ee" stroke="white">
<path d="M 8.173 6.854 C -1.422 17.099 -1.355 18.000 9.000 18.000 C 15.444 18.000 17.000 18.292 17.000 19.500 C 17.000 21.656 20.649 21.351 23.000 19.000 C 25.546 16.454 25.546 13.546 23.000 11.000 C 21.444 9.444 19.667 9.000 15.000 9.000 C 10.333 9.000 9.000 8.667 9.000 7.500 C 9.000 6.404 10.146 5.996 13.250 5.985 C 16.362 5.973 17.099 5.710 16.000 5.000 C 13.402 3.321 10.935 3.905 8.173 6.854 M 17.000 13.500 C 17.000 14.652 15.722 15.000 11.500 15.000 C 7.278 15.000 6.000 14.652 6.000 13.500 C 6.000 12.348 7.278 12.000 11.500 12.000 C 15.722 12.000 17.000 12.348 17.000 13.500 "/></g>
<g fill="orange" stroke="orange">
<path d="M 2.523 18.963 C 2.165 19.541 2.515 20.260 3.299 20.561 C 5.599 21.444 16.001 20.592 16.262 19.500 C 16.588 18.130 3.357 17.613 2.523 18.963 "/></g>
<g fill="orange" stroke="orange">
<path d="M 9.523 6.963 C 9.165 7.541 9.515 8.260 10.299 8.561 C 12.599 9.444 23.001 8.592 23.262 7.500 C 23.588 6.130 10.357 5.613 9.523 6.963 "/></g>
<g fill="orange" stroke="orange">
<path d="M 6.527 12.956 C 6.168 13.538 6.529 14.266 7.331 14.574 C 9.577 15.436 16.500 14.625 16.500 13.500 C 16.500 12.134 7.344 11.635 6.527 12.956 "/></g>
</svg>
