<?xml version="1.0" ?><svg id="Layer_1" style="enable-background:new 0 0 100 100;" version="1.1" viewBox="0 0 100 100" xml:space="preserve" xmlns="http://www.w3.org/2000/svg" xmlns:xlink="http://www.w3.org/1999/xlink"><style type="text/css">
	.st0{fill:none;stroke:#000000;stroke-width:8;stroke-linecap:round;stroke-linejoin:round;stroke-miterlimit:10;}
</style><g><g><path d="M50,60.6c-5.8,0-10.6-4.7-10.6-10.6S44.2,39.4,50,39.4S60.6,44.2,60.6,50S55.8,60.6,50,60.6z M50,43.1    c-3.8,0-6.9,3.1-6.9,6.9s3.1,6.9,6.9,6.9s6.9-3.1,6.9-6.9S53.8,43.1,50,43.1z"/></g><g><path d="M50,35.6c-1,0-1.8-0.8-1.8-1.8V9.5c0-1,0.8-1.8,1.8-1.8s1.8,0.8,1.8,1.8v24.2C51.8,34.8,51,35.6,50,35.6z"/></g><g><g><path d="M50,22.4c-0.4,0-0.8-0.1-1.1-0.4l-9.9-7.8c-0.8-0.6-0.9-1.8-0.3-2.6c0.6-0.8,1.8-0.9,2.6-0.3l8.8,6.9l8.8-6.9     c0.8-0.6,2-0.5,2.6,0.3c0.6,0.8,0.5,2-0.3,2.6L51.1,22C50.8,22.3,50.4,22.4,50,22.4z"/></g></g><g><path d="M50,92.3c-1,0-1.8-0.8-1.8-1.8V58.7c0-1,0.8-1.8,1.8-1.8s1.8,0.8,1.8,1.8v31.7C51.8,91.5,51,92.3,50,92.3z"/></g><g><g><path d="M59.9,89c-0.4,0-0.8-0.1-1.1-0.4L50,81.8l-8.8,6.9c-0.8,0.6-2,0.5-2.6-0.3c-0.6-0.8-0.5-2,0.3-2.6l9.9-7.8     c0.7-0.5,1.6-0.5,2.3,0l9.9,7.8c0.8,0.6,0.9,1.8,0.3,2.6C61,88.8,60.5,89,59.9,89z"/></g></g><g><path d="M90.5,51.8H58.7c-1,0-1.8-0.8-1.8-1.8s0.8-1.8,1.8-1.8h31.7c1,0,1.8,0.8,1.8,1.8S91.5,51.8,90.5,51.8z"/></g><g><g><path d="M87.2,61.8c-0.5,0-1.1-0.2-1.4-0.7L78,51.1c-0.5-0.7-0.5-1.6,0-2.3l7.8-9.9c0.6-0.8,1.8-0.9,2.6-0.3s0.9,1.8,0.3,2.6     L81.8,50l6.9,8.8c0.6,0.8,0.5,2-0.3,2.6C88,61.6,87.6,61.8,87.2,61.8z"/></g></g><g><path d="M41.3,51.8H9.5c-1,0-1.8-0.8-1.8-1.8s0.8-1.8,1.8-1.8h31.7c1,0,1.8,0.8,1.8,1.8S42.3,51.8,41.3,51.8z"/></g><g><g><path d="M12.8,61.8c-0.4,0-0.8-0.1-1.1-0.4c-0.8-0.6-0.9-1.8-0.3-2.6l6.9-8.8l-6.9-8.8c-0.6-0.8-0.5-2,0.3-2.6     c0.8-0.6,2-0.5,2.6,0.3l7.8,9.9c0.5,0.7,0.5,1.6,0,2.3l-7.8,9.9C13.9,61.5,13.3,61.8,12.8,61.8z"/></g></g><g><path d="M56.2,45.7c-0.5,0-0.9-0.2-1.3-0.5c-0.7-0.7-0.7-1.9,0-2.6l22.4-22.4c0.7-0.7,1.9-0.7,2.6,0c0.7,0.7,0.7,1.9,0,2.6    L57.5,45.1C57.1,45.5,56.6,45.7,56.2,45.7z"/></g><g><g><path d="M83.3,32.6c-0.1,0-0.1,0-0.2,0L70.6,31c-0.8-0.1-1.5-0.8-1.6-1.6l-1.5-12.5c-0.1-1,0.6-1.9,1.6-2c1-0.1,1.9,0.6,2,1.6     l1.4,11.1l11.1,1.4c1,0.1,1.7,1,1.6,2C85,31.9,84.3,32.6,83.3,32.6z"/></g></g><g><path d="M21.4,80.5c-0.5,0-0.9-0.2-1.3-0.5c-0.7-0.7-0.7-1.9,0-2.6L37.4,60c0.7-0.7,1.9-0.7,2.6,0c0.7,0.7,0.7,1.9,0,2.6    L22.7,79.9C22.3,80.3,21.9,80.5,21.4,80.5z"/></g><g><g><path d="M30.7,85.2c-0.9,0-1.7-0.7-1.8-1.6l-1.4-11.1l-11.1-1.4c-1-0.1-1.7-1-1.6-2c0.1-1,1-1.7,2-1.6L29.4,69     c0.8,0.1,1.5,0.8,1.6,1.6l1.5,12.5c0.1,1-0.6,1.9-1.6,2C30.9,85.2,30.8,85.2,30.7,85.2z"/></g></g><g><path d="M78.6,80.5c-0.5,0-0.9-0.2-1.3-0.5L54.9,57.5c-0.7-0.7-0.7-1.9,0-2.6c0.7-0.7,1.9-0.7,2.6,0l22.4,22.4    c0.7,0.7,0.7,1.9,0,2.6C79.6,80.3,79.1,80.5,78.6,80.5z"/></g><g><g><path d="M69.3,85.2c-0.1,0-0.1,0-0.2,0c-1-0.1-1.7-1-1.6-2L69,70.6c0.1-0.8,0.8-1.5,1.6-1.6l12.5-1.5c1-0.1,1.9,0.6,2,1.6     c0.1,1-0.6,1.9-1.6,2l-11.1,1.4l-1.4,11.1C71,84.5,70.2,85.2,69.3,85.2z"/></g></g><g><path d="M43.8,45.7c-0.5,0-0.9-0.2-1.3-0.5L20.1,22.7c-0.7-0.7-0.7-1.9,0-2.6c0.7-0.7,1.9-0.7,2.6,0l22.4,22.4    c0.7,0.7,0.7,1.9,0,2.6C44.8,45.5,44.3,45.7,43.8,45.7z"/></g><g><g><path d="M16.7,32.6c-0.9,0-1.7-0.7-1.8-1.6c-0.1-1,0.6-1.9,1.6-2l11.1-1.4l1.4-11.1c0.1-1,1-1.7,2-1.6c1,0.1,1.7,1,1.6,2L31,29.4     c-0.1,0.8-0.8,1.5-1.6,1.6l-12.5,1.5C16.8,32.5,16.7,32.6,16.7,32.6z"/></g></g></g></svg>