<?xml version="1.0" ?><!DOCTYPE svg  PUBLIC '-//W3C//DTD SVG 1.1//EN'  'http://www.w3.org/Graphics/SVG/1.1/DTD/svg11.dtd'><svg enable-background="new 0 0 64 64" height="64px" id="Layer_1" version="1.1" viewBox="0 0 64 64" width="64px" xml:space="preserve" xmlns="http://www.w3.org/2000/svg" xmlns:xlink="http://www.w3.org/1999/xlink"><path d="M50.822,14.997c-2.005-5.901-8.404-8.772-19.541-8.772c-8.194,0-14.21,4.568-16.58,12.556  c-8.528,0.552-13.8,4.863-13.8,11.338c0,7.47,4.968,11.93,13.289,11.93c0.414,0,0.75-0.336,0.75-0.75s-0.336-0.75-0.75-0.75  c-7.492,0-11.789-3.802-11.789-10.43c0-5.813,4.826-9.502,12.909-9.87c0.325-0.015,0.604-0.238,0.689-0.552  c2.068-7.608,7.638-11.972,15.281-11.972c10.648,0,16.614,2.658,18.239,8.125c0.079,0.267,0.299,0.467,0.57,0.522  c6.131,1.234,11.508,7.51,11.508,13.431c0,6.876-8.123,10.587-15.766,10.587c-0.414,0-0.75,0.336-0.75,0.75s0.336,0.75,0.75,0.75  c8.37,0,17.266-4.236,17.266-12.087C63.099,23.255,57.521,16.578,50.822,14.997z"/><path d="M38.742,42.318c0.006-0.053,0.01-0.104,0.005-0.155c-0.001-0.017,0.005-0.033,0.002-0.05  c-0.005-0.03-0.023-0.054-0.031-0.083c-0.015-0.05-0.03-0.097-0.055-0.143s-0.055-0.085-0.088-0.124  c-0.02-0.023-0.029-0.052-0.052-0.073c-0.013-0.012-0.029-0.016-0.043-0.026c-0.039-0.032-0.081-0.055-0.125-0.079  c-0.044-0.022-0.086-0.046-0.132-0.06c-0.043-0.013-0.086-0.017-0.131-0.021c-0.053-0.006-0.104-0.011-0.156-0.006  c-0.017,0.002-0.033-0.005-0.051-0.002c-1.376,0.229-1.998,0.411-2.6,0.587c-0.396,0.115-0.783,0.228-1.388,0.354  c0.19-0.829,0.315-1.383,0.439-1.932c0.173-0.764,0.345-1.527,0.698-3.052c0.348-1.498,0.529-2.071,0.722-2.679  c0.192-0.608,0.392-1.237,0.752-2.794c0.001-0.004,0-0.007,0-0.011c0.011-0.048,0.004-0.099,0.005-0.148  c0-0.051,0.009-0.102-0.001-0.151c-0.001-0.004,0.001-0.007,0-0.011c-0.007-0.032-0.026-0.056-0.037-0.086  c-0.021-0.061-0.039-0.121-0.074-0.174c-0.022-0.033-0.054-0.057-0.08-0.086c-0.039-0.042-0.074-0.086-0.123-0.119  c-0.041-0.029-0.09-0.042-0.137-0.063c-0.039-0.016-0.071-0.042-0.114-0.052c-0.005-0.001-0.009,0-0.013,0  c-0.051-0.011-0.104-0.004-0.156-0.004c-0.046,0-0.093-0.008-0.138,0c-0.005,0.001-0.009-0.001-0.014,0  c-2.8,0.577-4.186,0.729-5.653,0.89c-1.381,0.151-2.82,0.312-5.475,0.848c-0.007-0.002-0.012-0.007-0.02-0.008  c-0.409-0.072-0.797,0.199-0.87,0.607c-0.252,1.416-0.64,2.062-1.05,2.745c-0.44,0.733-0.94,1.564-1.24,3.253  c-0.307,1.728-0.017,2.692,0.24,3.543c0.238,0.791,0.444,1.475,0.199,2.852c0,0.001,0,0.001,0,0.002  c-0.009,0.054,0.001,0.111,0.004,0.167c0.002,0.044-0.005,0.09,0.004,0.132c0,0.001,0,0.002,0,0.003  c0.021,0.091,0.061,0.173,0.11,0.246c0.014,0.021,0.034,0.034,0.049,0.054c0.042,0.051,0.086,0.098,0.14,0.135  c0.026,0.019,0.055,0.031,0.084,0.046c0.054,0.029,0.109,0.052,0.168,0.066c0.017,0.004,0.03,0.016,0.047,0.019  c0.043,0.008,0.087,0.012,0.129,0.012c0,0,0.001,0,0.001,0h0c0,0,0,0,0.001,0c0.001,0,0.002-0.001,0.003-0.001  c0.056,0,0.112-0.006,0.169-0.02c1.628-0.386,2.301-0.635,2.951-0.876c0.418-0.154,0.827-0.305,1.491-0.493  c-0.242,0.884-0.34,1.508-0.433,2.111c-0.128,0.835-0.25,1.625-0.771,3.155c-0.526,1.543-0.89,2.256-1.274,3.011  c-0.39,0.766-0.793,1.558-1.351,3.188c0,0,0,0,0,0.001c-0.002,0.007-0.004,0.012-0.007,0.019c-0.012,0.035-0.007,0.069-0.014,0.104  c-0.011,0.059-0.026,0.116-0.023,0.175c0.002,0.05,0.02,0.094,0.032,0.142c0.012,0.046,0.017,0.093,0.038,0.137  c0.025,0.054,0.064,0.098,0.101,0.144c0.022,0.028,0.035,0.062,0.062,0.087c0.002,0.003,0.006,0.003,0.009,0.006  c0.028,0.025,0.065,0.04,0.097,0.062c0.05,0.033,0.098,0.069,0.153,0.089c0.005,0.002,0.008,0.006,0.013,0.008  c0.081,0.027,0.162,0.04,0.242,0.04c0.092,0,0.179-0.021,0.263-0.053c0.025-0.01,0.048-0.023,0.072-0.036  c0.062-0.031,0.117-0.069,0.168-0.117c0.013-0.012,0.03-0.017,0.042-0.029c1.114-1.182,1.785-1.706,2.496-2.262  c0.724-0.565,1.472-1.15,2.663-2.414c1.167-1.236,1.732-1.89,2.279-2.521c0.535-0.619,1.089-1.259,2.229-2.467  c1.179-1.25,1.712-1.947,2.228-2.621s1.003-1.311,2.129-2.504c0.012-0.013,0.016-0.03,0.027-0.044  c0.032-0.039,0.055-0.082,0.079-0.127c0.022-0.043,0.045-0.083,0.059-0.129C38.733,42.408,38.736,42.364,38.742,42.318z   M33.106,46.847c-1.161,1.231-1.725,1.884-2.271,2.515c-0.561,0.648-1.091,1.261-2.236,2.474c-1.114,1.182-1.785,1.706-2.496,2.262  c-0.029,0.022-0.058,0.046-0.087,0.068c0.377-0.741,0.772-1.536,1.311-3.116c0.564-1.656,0.702-2.549,0.834-3.412  c0.128-0.836,0.25-1.625,0.772-3.156c0.007-0.02,0.003-0.039,0.008-0.059c0.012-0.049,0.017-0.097,0.019-0.147  c0.002-0.052,0.003-0.101-0.005-0.15c-0.003-0.021,0.002-0.039-0.002-0.059c-0.006-0.027-0.024-0.047-0.034-0.073  c-0.018-0.049-0.037-0.095-0.064-0.14c-0.025-0.04-0.052-0.075-0.083-0.11c-0.033-0.036-0.066-0.067-0.106-0.098  c-0.041-0.029-0.082-0.053-0.128-0.074c-0.025-0.012-0.044-0.032-0.072-0.042c-0.02-0.007-0.041-0.003-0.061-0.008  c-0.047-0.012-0.094-0.016-0.143-0.019c-0.053-0.003-0.104-0.003-0.156,0.005c-0.019,0.003-0.037-0.003-0.056,0.002  c-1.628,0.386-2.301,0.635-2.951,0.876c-0.469,0.173-0.921,0.341-1.74,0.563c0.043-1.063-0.17-1.777-0.365-2.424  c-0.238-0.791-0.444-1.474-0.199-2.85c0.252-1.415,0.639-2.06,1.049-2.742c0.388-0.646,0.821-1.368,1.124-2.682  c2.47-0.493,3.791-0.642,5.168-0.793c1.229-0.135,2.5-0.275,4.635-0.682c-0.183,0.712-0.313,1.125-0.446,1.547  c-0.192,0.607-0.392,1.236-0.752,2.792c-0.354,1.529-0.527,2.295-0.7,3.061c-0.173,0.764-0.345,1.527-0.698,3.053  c-0.094,0.403,0.158,0.806,0.562,0.899c0.057,0.014,0.113,0.02,0.17,0.02c0.09,0,0.177-0.019,0.258-0.049  c1.332-0.223,1.947-0.402,2.54-0.575c0.074-0.021,0.148-0.043,0.223-0.064c-0.263,0.322-0.48,0.606-0.693,0.885  C34.72,45.017,34.232,45.653,33.106,46.847z"/></svg>